<svg width="25" height="24" viewBox="0 0 25 24" fill="none" xmlns="http://www.w3.org/2000/svg">
<path fill-rule="evenodd" clip-rule="evenodd" d="M20.9 11.9995C20.9 16.6387 17.1391 20.3995 12.5 20.3995C7.86081 20.3995 4.1 16.6387 4.1 11.9995C4.1 7.36032 7.86081 3.59951 12.5 3.59951C17.1391 3.59951 20.9 7.36032 20.9 11.9995ZM12.5 21.9995C18.0228 21.9995 22.5 17.5223 22.5 11.9995C22.5 6.47666 18.0228 1.99951 12.5 1.99951C6.97715 1.99951 2.5 6.47666 2.5 11.9995C2.5 17.5223 6.97715 21.9995 12.5 21.9995ZM11.2105 14.5107C11.6216 14.7026 12.0594 14.7999 12.4992 14.7999C12.939 14.7999 13.3769 14.7026 13.788 14.5107C14.1994 14.3187 14.5781 14.0347 14.8993 13.6706C15.1916 13.3393 15.6972 13.3077 16.0285 13.6C16.3598 13.8923 16.3914 14.3978 16.0991 14.7292C15.6382 15.2516 15.0834 15.6718 14.4646 15.9606C13.8454 16.2496 13.177 16.3999 12.4992 16.3999C11.8215 16.3999 11.153 16.2496 10.5339 15.9606C9.91503 15.6718 9.36023 15.2516 8.89933 14.7292C8.60702 14.3978 8.63865 13.8923 8.96997 13.6C9.30128 13.3077 9.80683 13.3393 10.0991 13.6706C10.4203 14.0347 10.7991 14.3187 11.2105 14.5107ZM10.5 10C10.5 10.5523 10.0523 11 9.5 11C8.94772 11 8.5 10.5523 8.5 10C8.5 9.44772 8.94772 9 9.5 9C10.0523 9 10.5 9.44772 10.5 10ZM16.5 10C16.5 10.5523 16.0523 11 15.5 11C14.9477 11 14.5 10.5523 14.5 10C14.5 9.44772 14.9477 9 15.5 9C16.0523 9 16.5 9.44772 16.5 10Z" fill="#303336"/>
</svg>
