<svg width="24" height="24" viewBox="0 0 24 24" fill="none" xmlns="http://www.w3.org/2000/svg">
<path fill-rule="evenodd" clip-rule="evenodd" d="M20.4 11.9995C20.4 16.6387 16.6391 20.3995 12 20.3995C7.36081 20.3995 3.6 16.6387 3.6 11.9995C3.6 7.36032 7.36081 3.59951 12 3.59951C16.6391 3.59951 20.4 7.36032 20.4 11.9995ZM12 21.9995C17.5228 21.9995 22 17.5223 22 11.9995C22 6.47666 17.5228 1.99951 12 1.99951C6.47715 1.99951 2 6.47666 2 11.9995C2 17.5223 6.47715 21.9995 12 21.9995ZM13.2895 15.2896C12.8784 15.0977 12.4406 15.0004 12.0008 15.0004C11.561 15.0004 11.1231 15.0977 10.712 15.2896C10.3006 15.4816 9.92188 15.7656 9.60067 16.1297C9.30837 16.461 8.80283 16.4926 8.47151 16.2003C8.14019 15.908 8.10857 15.4024 8.40087 15.0711C8.86177 14.5487 9.41657 14.1285 10.0354 13.8397C10.6546 13.5507 11.323 13.4004 12.0008 13.4004C12.6785 13.4004 13.347 13.5507 13.9661 13.8397C14.585 14.1285 15.1398 14.5487 15.6007 15.0711C15.893 15.4024 15.8613 15.908 15.53 16.2003C15.1987 16.4926 14.6932 16.461 14.4009 16.1297C14.0797 15.7656 13.7009 15.4816 13.2895 15.2896ZM10 10C10 10.5523 9.55228 11 9 11C8.44772 11 8 10.5523 8 10C8 9.44772 8.44772 9 9 9C9.55228 9 10 9.44772 10 10ZM16 10C16 10.5523 15.5523 11 15 11C14.4477 11 14 10.5523 14 10C14 9.44772 14.4477 9 15 9C15.5523 9 16 9.44772 16 10Z" fill="#303336"/>
</svg>
