<svg width="20" height="20" viewBox="0 0 20 20" fill="none" xmlns="http://www.w3.org/2000/svg">
<g id="icon/veiw-mode">
<path id="Vector" fill-rule="evenodd" clip-rule="evenodd" d="M3.16634 9.16699C3.16634 8.99371 3.28499 8.60977 3.64407 8.07018C3.98528 7.55744 4.49082 6.98384 5.12643 6.44723C6.4042 5.36848 8.13228 4.50033 9.99967 4.50033C11.8671 4.50033 13.5951 5.36848 14.8729 6.44723C15.5085 6.98384 16.0141 7.55744 16.3553 8.07018C16.7144 8.60977 16.833 8.99371 16.833 9.16699C16.833 9.26501 16.7906 9.45092 16.6356 9.72095C16.4524 10.0403 16.5628 10.4477 16.8821 10.631C17.2015 10.8142 17.6089 10.7038 17.7921 10.3845C18.0095 10.0057 18.1663 9.58577 18.1663 9.16699C18.1663 8.59028 17.8653 7.93254 17.4653 7.33151C17.0475 6.70363 16.4547 6.03764 15.733 5.42842C14.2963 4.2155 12.2744 3.16699 9.99967 3.16699C7.72493 3.16699 5.70301 4.2155 4.26631 5.42842C3.54469 6.03764 2.95188 6.70363 2.53405 7.33151C2.13409 7.93254 1.83301 8.59028 1.83301 9.16699C1.83301 9.74371 2.13409 10.4014 2.53405 11.0025C2.95188 11.6304 3.54469 12.2963 4.26631 12.9056C5.70301 14.1185 7.72493 15.167 9.99967 15.167C10.3679 15.167 10.6663 14.8685 10.6663 14.5003C10.6663 14.1321 10.3679 13.8337 9.99967 13.8337C8.13228 13.8337 6.4042 12.9655 5.12643 11.8868C4.49082 11.3501 3.98528 10.7765 3.64407 10.2638C3.28499 9.72421 3.16634 9.34028 3.16634 9.16699ZM7.85384 9.16699C7.85384 8.0694 8.78865 7.13366 9.99967 7.13366C11.2107 7.13366 12.1455 8.0694 12.1455 9.16699C12.1455 10.2646 11.2107 11.2003 9.99967 11.2003C8.78865 11.2003 7.85384 10.2646 7.85384 9.16699ZM9.99967 5.80033C8.10409 5.80033 6.52051 7.28225 6.52051 9.16699C6.52051 11.0517 8.10409 12.5337 9.99967 12.5337C11.8953 12.5337 13.4788 11.0517 13.4788 9.16699C13.4788 7.28225 11.8953 5.80033 9.99967 5.80033ZM16.8898 11.8898V13.7346H17.333C17.5171 13.7346 17.6664 13.8839 17.6664 14.068V14.4796C17.6664 14.6637 17.5171 14.8129 17.333 14.8129H16.8898V17.3333C16.8898 17.5174 16.7406 17.6666 16.5565 17.6666H15.9807C15.7966 17.6666 15.6473 17.5174 15.6473 17.3333V11.8898C15.6473 11.7057 15.7966 11.5565 15.9807 11.5565H16.5565C16.7406 11.5565 16.8898 11.7057 16.8898 11.8898ZM14.721 14.8226C14.3126 15.5304 13.6753 16.1384 12.7451 16.6192C12.5994 16.6945 12.4224 16.6504 12.3269 16.5207L12.0153 16.0976C11.8917 15.9297 11.9521 15.6966 12.1292 15.6015C13.2447 15.0021 13.8545 14.2535 14.0415 13.2156H12.5461C12.3621 13.2156 12.2128 13.0664 12.2128 12.8823V12.4706C12.2128 12.2866 12.3621 12.1373 12.5461 12.1373H14.9907C15.1738 12.1373 15.3265 12.2864 15.3221 12.4746C15.3019 13.3207 15.1287 14.1159 14.721 14.8226ZM16.7231 11.8898C16.7231 11.7978 16.6485 11.7231 16.5565 11.7231H15.9807C15.9697 11.7231 15.9591 11.7242 15.9487 11.7262C15.9588 11.7243 15.9692 11.7233 15.9798 11.7233H16.5557C16.6477 11.7233 16.7223 11.7979 16.7223 11.89V13.7348C16.7223 13.8268 16.7969 13.9015 16.889 13.9015H17.3322C17.4243 13.9015 17.4989 13.9761 17.4989 14.0681V14.4798C17.4989 14.5609 17.4409 14.6285 17.3642 14.6434C17.4413 14.6288 17.4997 14.561 17.4997 14.4796V14.068C17.4997 13.9759 17.4251 13.9013 17.333 13.9013H16.8898C16.7978 13.9013 16.7231 13.8267 16.7231 13.7346V11.8898ZM16.7223 14.8131C16.7223 14.7317 16.7807 14.6639 16.8578 14.6493C16.7811 14.6643 16.7231 14.7318 16.7231 14.8129V17.3333C16.7231 17.4147 16.6648 17.4825 16.5876 17.4971C16.6644 17.4822 16.7223 17.4146 16.7223 17.3335V14.8131ZM15.1554 12.4706C15.1576 12.3786 15.0828 12.304 14.9907 12.304H12.5461C12.5352 12.304 12.5245 12.305 12.5142 12.307C12.5243 12.3051 12.5347 12.3041 12.5453 12.3041H14.9899C15.082 12.3041 15.1568 12.3788 15.1546 12.4708C15.1153 14.1229 14.4793 15.535 12.6677 16.4713C12.6538 16.4785 12.6394 16.4834 12.6247 16.4863C12.6397 16.4834 12.6544 16.4784 12.6685 16.4711C14.4801 15.5348 15.1161 14.1227 15.1554 12.4706Z" fill="#33363D"/>
</g>
</svg>
