<svg width="24" height="24" viewBox="0 0 24 24" fill="none" xmlns="http://www.w3.org/2000/svg">
<path fill-rule="evenodd" clip-rule="evenodd" d="M10.5 17.4C6.68924 17.4 3.6 14.3108 3.6 10.5C3.6 6.68924 6.68924 3.6 10.5 3.6C14.3108 3.6 17.4 6.68924 17.4 10.5C17.4 14.3108 14.3108 17.4 10.5 17.4ZM2 10.5C2 5.80558 5.80558 2 10.5 2C15.1944 2 19 5.80558 19 10.5C19 12.5593 18.2677 14.4475 17.0494 15.9185L22.315 21.1841C22.6274 21.4965 22.6274 22.003 22.315 22.3155C22.0025 22.6279 21.496 22.6279 21.1836 22.3155L15.9179 17.0498C14.447 18.2679 12.559 19 10.5 19C5.80558 19 2 15.1944 2 10.5Z" fill="#2D2D2D"/>
</svg>
