<svg width="16" height="16" viewBox="0 0 16 16" fill="none" xmlns="http://www.w3.org/2000/svg">
<g id="icon/globe">
<path id="Vector" fill-rule="evenodd" clip-rule="evenodd" d="M5.7918 2.85263C4.58506 3.37114 3.59714 4.30158 3.00502 5.46696H4.73299C4.89258 4.74308 5.11952 4.08366 5.40178 3.51914C5.51871 3.28528 5.6489 3.06118 5.7918 2.85263ZM2.59464 6.53363C2.46814 7.00105 2.40065 7.49272 2.40065 8.00016C2.40065 8.50938 2.46862 9.00273 2.59598 9.47162C2.61915 9.46855 2.64279 9.46696 2.6668 9.46696H4.55309C4.49646 8.99428 4.4668 8.50311 4.4668 8.00029C4.4668 7.49748 4.49646 7.00631 4.55309 6.53363H2.59464ZM3.00515 10.5336C3.59725 11.6988 4.58502 12.6291 5.79155 13.1476C5.64875 12.9391 5.51864 12.7152 5.40178 12.4814C5.11952 11.9169 4.89258 11.2575 4.73299 10.5336H3.00515ZM10.2083 13.1482C11.4155 12.6299 12.4038 11.6993 12.9962 10.5336H11.2673C11.1077 11.2575 10.8807 11.9169 10.5985 12.4814C10.4815 12.7154 10.3512 12.9396 10.2083 13.1482ZM13.4053 9.47176C13.5327 9.00282 13.6007 8.50943 13.6007 8.00016C13.6007 7.49272 13.5332 7.00105 13.4067 6.53363H11.4472C11.5038 7.00631 11.5335 7.49748 11.5335 8.00029C11.5335 8.50311 11.5038 8.99428 11.4472 9.46696H13.3335C13.3578 9.46696 13.3818 9.46859 13.4053 9.47176ZM12.9963 5.46696C12.4039 4.3011 11.4154 3.37038 10.208 2.852C10.3511 3.06072 10.4814 3.28504 10.5985 3.51914C10.8807 4.08366 11.1077 4.74308 11.2673 5.46696H12.9963ZM8.00065 1.3335C4.31875 1.3335 1.33398 4.31826 1.33398 8.00016C1.33398 11.6821 4.31875 14.6668 8.00065 14.6668C11.6825 14.6668 14.6673 11.6821 14.6673 8.00016C14.6673 4.31826 11.6825 1.3335 8.00065 1.3335ZM5.8284 5.46696C5.96545 4.91414 6.14502 4.41781 6.35584 3.99617C6.87038 2.96708 7.48254 2.53363 8.00013 2.53363C8.51772 2.53363 9.12988 2.96708 9.64442 3.99617C9.85524 4.41781 10.0348 4.91414 10.1719 5.46696H5.8284ZM6.35584 12.0044C6.14502 11.5828 5.96545 11.0864 5.8284 10.5336H10.1719C10.0348 11.0864 9.85524 11.5828 9.64442 12.0044C9.12988 13.0335 8.51772 13.467 8.00013 13.467C7.48254 13.467 6.87038 13.0335 6.35584 12.0044ZM5.53346 8.00029C5.53346 8.50996 5.56665 9.00148 5.62813 9.46696H10.3721C10.4336 9.00148 10.4668 8.50996 10.4668 8.00029C10.4668 7.49062 10.4336 6.9991 10.3721 6.53363H5.62813C5.56665 6.9991 5.53346 7.49062 5.53346 8.00029Z" fill="#33363D"/>
</g>
</svg>
