<svg width="20" height="20" viewBox="0 0 20 20" fill="none" xmlns="http://www.w3.org/2000/svg">
<g id="icon/popover">
<path id="Vector" fill-rule="evenodd" clip-rule="evenodd" d="M9.99935 2.99984C13.8653 2.99984 16.9993 6.13388 16.9993 9.99984C16.9993 13.8658 13.8653 16.9998 9.99935 16.9998C6.13335 16.9998 2.99935 13.8658 2.99935 9.99984C2.99935 6.13388 6.13336 2.99984 9.99935 2.99984ZM18.3327 9.99984C18.3327 5.3975 14.6017 1.6665 9.99935 1.6665C5.39697 1.6665 1.66602 5.3975 1.66602 9.99984C1.66602 14.6022 5.39697 18.3332 9.99935 18.3332C14.6017 18.3332 18.3327 14.6022 18.3327 9.99984ZM10.9154 6.86735C10.9154 7.41964 10.4676 7.86735 9.91537 7.86735C9.36308 7.86735 8.91537 7.41964 8.91537 6.86735C8.91537 6.31507 9.36308 5.86735 9.91537 5.86735C10.4676 5.86735 10.9154 6.31507 10.9154 6.86735ZM8.4987 8.69247H9.41667H10.1654H10.9167V12.9946H11.666V13.9946H8.33268V12.9946H9.41667V9.69246H8.4987V8.69247Z" fill="#2768FF"/>
</g>
</svg>
