<svg width="24" height="24" viewBox="0 0 24 24" fill="none" xmlns="http://www.w3.org/2000/svg">
<path fill-rule="evenodd" clip-rule="evenodd" d="M12.0031 3.79922C7.47439 3.79922 3.80313 7.47048 3.80313 11.9992V13.1992H6.00312C7.54952 13.1992 8.80313 14.4528 8.80313 15.9992V18.9992C8.80313 20.5456 7.54952 21.7992 6.00312 21.7992H3.00313C2.5613 21.7992 2.20312 21.441 2.20312 20.9992V11.9992C2.20312 6.58683 6.59073 2.19922 12.0031 2.19922C17.4155 2.19922 21.8031 6.58683 21.8031 11.9992V20.9992C21.8031 21.441 21.445 21.7992 21.0031 21.7992H18.0031C16.4567 21.7992 15.2031 20.5456 15.2031 18.9992V15.9992C15.2031 14.4528 16.4567 13.1992 18.0031 13.1992H20.2031V11.9992C20.2031 7.47048 16.5319 3.79922 12.0031 3.79922ZM20.2031 14.7992H18.0031C17.3404 14.7992 16.8031 15.3365 16.8031 15.9992V18.9992C16.8031 19.662 17.3404 20.1992 18.0031 20.1992H20.2031V14.7992ZM3.80313 14.7992V20.1992H6.00312C6.66587 20.1992 7.20312 19.662 7.20312 18.9992V15.9992C7.20312 15.3365 6.66587 14.7992 6.00312 14.7992H3.80313Z" fill="#303336"/>
</svg>
