<svg width="24" height="24" viewBox="0 0 24 24" fill="none" xmlns="http://www.w3.org/2000/svg">
<path fill-rule="evenodd" clip-rule="evenodd" d="M6.20312 3.49922C6.20312 3.05739 6.5613 2.69922 7.00313 2.69922H17.0031C17.445 2.69922 17.8031 3.05739 17.8031 3.49922V4.69922H18.5031C20.3257 4.69922 21.8031 6.17668 21.8031 7.99922C21.8031 9.82176 20.3257 11.2992 18.5031 11.2992H17.8031V11.4992C17.8031 14.431 15.6278 16.8548 12.8031 17.2445V19.6992H16.0031C16.445 19.6992 16.8031 20.0574 16.8031 20.4992C16.8031 20.941 16.445 21.2992 16.0031 21.2992H8.00313C7.5613 21.2992 7.20312 20.941 7.20312 20.4992C7.20312 20.0574 7.5613 19.6992 8.00313 19.6992H11.2031V17.2445C8.37845 16.8548 6.20312 14.431 6.20312 11.4992V11.2992H5.50312C3.68058 11.2992 2.20312 9.82176 2.20312 7.99922C2.20312 6.17668 3.68059 4.69922 5.50313 4.69922H6.20312V3.49922ZM6.20312 6.29922H5.50313C4.56424 6.29922 3.80313 7.06033 3.80313 7.99922C3.80313 8.9381 4.56424 9.69922 5.50312 9.69922H6.20312V6.29922ZM7.80313 4.29922H16.2031V11.4992C16.2031 13.8188 14.3227 15.6992 12.0031 15.6992C9.68353 15.6992 7.80313 13.8188 7.80313 11.4992V4.29922ZM17.8031 9.69922H18.5031C19.442 9.69922 20.2031 8.9381 20.2031 7.99922C20.2031 7.06033 19.442 6.29922 18.5031 6.29922H17.8031V9.69922Z" fill="#303336"/>
</svg>
