<svg width="24" height="24" viewBox="0 0 24 24" fill="none" xmlns="http://www.w3.org/2000/svg">
<path fill-rule="evenodd" clip-rule="evenodd" d="M4.20312 2.99922C4.20312 2.55739 4.5613 2.19922 5.00313 2.19922H14.0031C14.2153 2.19922 14.4188 2.2835 14.5688 2.43353L19.5688 7.43353C19.7188 7.58356 19.8031 7.78705 19.8031 7.99922V20.9992C19.8031 21.441 19.445 21.7992 19.0031 21.7992H5.00313C4.5613 21.7992 4.20312 21.441 4.20312 20.9992V2.99922ZM5.80313 3.79922V20.1992H18.2031V9.79922H15.0031C14.2429 9.79922 13.5497 9.42718 13.0624 8.9399C12.5752 8.45263 12.2031 7.7594 12.2031 6.99922V3.79922H5.80313ZM13.8031 3.93059V6.99922C13.8031 7.23903 13.9311 7.54581 14.1938 7.80853C14.4565 8.07126 14.7633 8.19922 15.0031 8.19922H18.0718L13.8031 3.93059ZM15.5824 11.4475C15.8871 11.7674 15.8748 12.2738 15.5549 12.5785L11.3549 16.5785C11.0459 16.8728 10.5604 16.8728 10.2514 16.5785L8.4514 14.8642C8.13146 14.5595 8.11911 14.0531 8.42381 13.7332C8.72852 13.4133 9.2349 13.4009 9.55485 13.7056L10.8031 14.8945L14.4514 11.4199C14.7713 11.1152 15.2777 11.1276 15.5824 11.4475Z" fill="#303336"/>
</svg>
