<svg width="24" height="24" viewBox="0 0 24 24" fill="none" xmlns="http://www.w3.org/2000/svg">
<path fill-rule="evenodd" clip-rule="evenodd" d="M16.4374 2.43353C16.7499 2.12111 17.2564 2.12111 17.5688 2.43353L21.5688 6.43353C21.8812 6.74595 21.8812 7.25248 21.5688 7.5649L12.5688 16.5649C12.4188 16.7149 12.2153 16.7992 12.0031 16.7992H8.00313C7.5613 16.7992 7.20312 16.441 7.20312 15.9992V11.9992C7.20312 11.787 7.28741 11.5836 7.43744 11.4335L16.4374 2.43353ZM15.1345 5.99922L18.0031 8.86785L19.8718 6.99922L17.0031 4.13059L15.1345 5.99922ZM16.8718 9.99922L14.0031 7.13059L8.80313 12.3306V15.1992H11.6718L16.8718 9.99922ZM3.20313 3.99922C3.20313 3.55739 3.5613 3.19922 4.00313 3.19922L10.8031 3.19922L10.8031 4.79922L4.80313 4.79922L4.80313 19.1992L19.2031 19.1992V13.1992H20.8031V19.9992C20.8031 20.2114 20.7188 20.4149 20.5688 20.5649C20.4188 20.7149 20.2153 20.7992 20.0031 20.7992L4.00313 20.7992C3.5613 20.7992 3.20312 20.441 3.20313 19.9992L3.20313 3.99922Z" fill="#303336"/>
</svg>
